<svg xmlns="http://www.w3.org/2000/svg" width="940" height="260" viewBox="0 0 940 260">
  <rect width="940" height="260" fill="#faf9f5"/>
  <text x="40" y="42" fill="#23395b" font-size="26" font-family="Arial">Backpropagation Through a Tiny MLP</text>
  <rect x="40" y="90" width="130" height="82" rx="16" fill="#dbeafe" stroke="#2563eb" stroke-width="2"/>
  <rect x="220" y="90" width="150" height="82" rx="16" fill="#e0f2fe" stroke="#0284c7" stroke-width="2"/>
  <rect x="430" y="90" width="130" height="82" rx="16" fill="#dcfce7" stroke="#16a34a" stroke-width="2"/>
  <rect x="620" y="90" width="130" height="82" rx="16" fill="#fef3c7" stroke="#d97706" stroke-width="2"/>
  <rect x="800" y="90" width="100" height="82" rx="16" fill="#fee2e2" stroke="#dc2626" stroke-width="2"/>
  <text x="94" y="138" font-size="20" font-family="Arial" fill="#1d4ed8">X</text>
  <text x="258" y="124" font-size="18" font-family="Arial" fill="#0c4a6e">z1 = XW1 + b1</text>
  <text x="470" y="138" font-size="18" font-family="Arial" fill="#166534">h = ReLU(z1)</text>
  <text x="652" y="124" font-size="18" font-family="Arial" fill="#9a3412">y_hat = hW2 + b2</text>
  <text x="825" y="138" font-size="20" font-family="Arial" fill="#991b1b">L</text>
  <path d="M170 131 H220" stroke="#334155" stroke-width="4" fill="none"/>
  <path d="M370 131 H430" stroke="#334155" stroke-width="4" fill="none"/>
  <path d="M560 131 H620" stroke="#334155" stroke-width="4" fill="none"/>
  <path d="M750 131 H800" stroke="#334155" stroke-width="4" fill="none"/>
  <path d="M850 185 H700 H495 H285 H105" stroke="#dc2626" stroke-width="4" fill="none" stroke-dasharray="10 7"/>
  <text x="612" y="204" font-size="16" font-family="Arial" fill="#991b1b">gradients travel backward by the chain rule</text>
</svg>
